<?xml version="1.0" encoding="utf-8"?>

<!DOCTYPE svg PUBLIC "-//W3C//DTD SVG 1.1//EN" "http://www.w3.org/Graphics/SVG/1.1/DTD/svg11.dtd">
<svg version="1.1" fill="#ffffff" id="Layer_1" xmlns="http://www.w3.org/2000/svg" xmlns:xlink="http://www.w3.org/1999/xlink" x="0px" y="0px"
	 viewBox="0 0 1659.488 1659.488" enable-background="new 0 0 1659.488 1659.488" xml:space="preserve">
<g>
	<polygon points="688.118,227.819 720.424,222.496 715.498,190.094 638.031,162.57 	"/>
	<polygon points="509.045,301.044 538.125,285.999 523.427,256.705 441.246,254.467 	"/>
	<polygon points="361.364,426.022 384.371,402.727 361.34,379.409 282.49,402.675 	"/>
	<polygon points="259.531,590.519 274.214,561.255 245.104,546.194 177.303,592.688 	"/>
	<polygon points="213.515,778.433 218.436,746.064 186.097,740.736 135.982,805.906 	"/>
	<polygon points="227.819,971.37 222.496,939.064 190.094,943.99 162.57,1021.457 	"/>
	<polygon points="301.044,1150.443 285.999,1121.363 256.705,1136.061 254.467,1218.242 	"/>
	<polygon points="426.022,1298.124 402.727,1275.117 379.409,1298.148 402.675,1376.998 	"/>
	<polygon points="590.519,1399.957 561.255,1385.274 546.194,1414.384 592.688,1482.185 	"/>
	<polygon points="778.433,1445.973 746.064,1441.052 740.736,1473.391 805.906,1523.506 	"/>
	<polygon points="971.37,1431.669 939.064,1436.992 943.99,1469.394 1021.457,1496.918 	"/>
	<polygon points="1150.443,1358.444 1121.363,1373.489 1136.061,1402.783 1218.242,1405.021 	"/>
	<polygon points="1298.124,1233.466 1275.117,1256.761 1298.148,1280.079 1376.998,1256.813 	"/>
	<polygon points="1399.957,1068.969 1385.274,1098.233 1414.384,1113.294 1482.185,1066.8 	"/>
	<polygon points="1445.973,881.055 1441.052,913.424 1473.391,918.752 1523.506,853.582 	"/>
	<polygon points="1431.669,688.118 1436.992,720.424 1469.394,715.498 1496.918,638.031 	"/>
	<polygon points="1358.444,509.045 1373.489,538.125 1402.783,523.427 1405.021,441.246 	"/>
	<polygon points="1233.466,361.364 1256.761,384.371 1280.079,361.34 1256.813,282.49 	"/>
	<polygon points="1068.969,259.531 1098.233,274.214 1113.294,245.104 1066.8,177.303 	"/>
	<polygon points="881.055,213.515 913.424,218.436 918.752,186.097 853.582,135.982 	"/>
	<polygon points="778.433,213.515 746.064,218.436 740.736,186.097 805.906,135.982 	"/>
	<polygon points="590.519,259.531 561.255,274.214 546.194,245.104 592.688,177.303 	"/>
	<polygon points="426.022,361.364 402.727,384.371 379.409,361.34 402.675,282.49 	"/>
	<polygon points="301.044,509.045 285.999,538.125 256.705,523.427 254.467,441.246 	"/>
	<polygon points="227.819,688.118 222.496,720.424 190.094,715.498 162.57,638.031 	"/>
	<polygon points="213.515,881.055 218.436,913.424 186.097,918.752 135.982,853.582 	"/>
	<polygon points="259.531,1068.969 274.214,1098.233 245.104,1113.294 177.303,1066.8 	"/>
	<polygon points="361.364,1233.466 384.371,1256.761 361.34,1280.079 282.49,1256.813 	"/>
	<polygon points="509.045,1358.444 538.125,1373.489 523.427,1402.783 441.246,1405.021 	"/>
	<polygon points="688.118,1431.669 720.424,1436.992 715.498,1469.394 638.031,1496.918 	"/>
	<polygon points="881.055,1445.973 913.424,1441.052 918.752,1473.391 853.582,1523.506 	"/>
	<polygon points="1068.969,1399.957 1098.233,1385.274 1113.294,1414.384 1066.8,1482.185 	"/>
	<polygon points="1233.466,1298.124 1256.761,1275.117 1280.079,1298.148 1256.813,1376.998 	"/>
	<polygon points="1358.444,1150.443 1373.489,1121.363 1402.783,1136.061 1405.021,1218.242 	"/>
	<polygon points="1431.669,971.37 1436.992,939.064 1469.394,943.99 1496.918,1021.457 	"/>
	<polygon points="1445.973,778.433 1441.052,746.064 1473.391,740.736 1523.506,805.906 	"/>
	<polygon points="1399.957,590.519 1385.274,561.255 1414.384,546.194 1482.185,592.688 	"/>
	<polygon points="1298.124,426.022 1275.117,402.727 1298.148,379.409 1376.998,402.675 	"/>
	<polygon points="1150.443,301.044 1121.363,285.999 1136.061,256.705 1218.242,254.467 	"/>
	<polygon points="971.37,227.819 939.064,222.496 943.99,190.094 1021.457,162.57 	"/>
	<polygon points="639.557,230.006 663.126,241.171 674.564,217.723 636.281,164.573 	"/>
	<polygon points="463.536,318.13 489.402,321.465 493.034,295.63 440.201,256.913 	"/>
	<polygon points="323.362,456.335 348.992,451.514 344.464,425.821 282.251,405.324 	"/>
	<polygon points="232.756,631.091 255.643,618.586 243.396,595.55 177.895,595.281 	"/>
	<polygon points="200.588,825.294 218.49,806.328 199.724,788.204 137.346,808.189 	"/>
	<polygon points="230.006,1019.931 241.171,996.362 217.723,984.924 164.573,1023.207 	"/>
	<polygon points="318.13,1195.952 321.465,1170.086 295.63,1166.454 256.913,1219.287 	"/>
	<polygon points="456.335,1336.126 451.514,1310.495 425.821,1315.024 405.324,1377.236 	"/>
	<polygon points="631.091,1426.732 618.586,1403.845 595.55,1416.092 595.281,1481.593 	"/>
	<polygon points="825.294,1458.9 806.328,1440.998 788.204,1459.764 808.189,1522.142 	"/>
	<polygon points="1019.931,1429.482 996.362,1418.317 984.924,1441.765 1023.207,1494.915 	"/>
	<polygon points="1195.952,1341.358 1170.086,1338.023 1166.454,1363.858 1219.287,1402.575 	"/>
	<polygon points="1336.126,1203.153 1310.495,1207.974 1315.024,1233.667 1377.236,1254.164 	"/>
	<polygon points="1426.732,1028.396 1403.845,1040.902 1416.092,1063.938 1481.593,1064.206 	"/>
	<polygon points="1458.9,834.194 1440.998,853.16 1459.764,871.284 1522.142,851.299 	"/>
	<polygon points="1429.482,639.557 1418.317,663.126 1441.765,674.564 1494.915,636.281 	"/>
	<polygon points="1341.358,463.536 1338.023,489.402 1363.858,493.034 1402.575,440.201 	"/>
	<polygon points="1203.153,323.362 1207.974,348.992 1233.667,344.464 1254.164,282.251 	"/>
	<polygon points="1028.396,232.756 1040.902,255.643 1063.938,243.396 1064.206,177.895 	"/>
	<polygon points="834.194,200.588 853.16,218.49 871.284,199.724 851.299,137.346 	"/>
	<polygon points="825.294,200.588 806.328,218.49 788.204,199.724 808.189,137.346 	"/>
	<polygon points="631.091,232.756 618.586,255.643 595.55,243.396 595.281,177.895 	"/>
	<polygon points="456.335,323.362 451.514,348.992 425.821,344.464 405.324,282.251 	"/>
	<polygon points="318.13,463.536 321.465,489.402 295.63,493.034 256.913,440.201 	"/>
	<polygon points="230.006,639.557 241.171,663.126 217.723,674.564 164.573,636.281 	"/>
	<polygon points="200.588,834.194 218.49,853.16 199.724,871.284 137.346,851.299 	"/>
	<polygon points="232.756,1028.396 255.643,1040.902 243.396,1063.938 177.895,1064.206 	"/>
	<polygon points="323.362,1203.153 348.992,1207.974 344.464,1233.667 282.251,1254.164 	"/>
	<polygon points="463.536,1341.358 489.402,1338.023 493.034,1363.858 440.201,1402.575 	"/>
	<polygon points="639.557,1429.482 663.126,1418.317 674.564,1441.765 636.281,1494.915 	"/>
	<polygon points="834.194,1458.9 853.16,1440.998 871.284,1459.764 851.299,1522.142 	"/>
	<polygon points="1028.396,1426.732 1040.902,1403.845 1063.938,1416.092 1064.206,1481.593 	"/>
	<polygon points="1203.153,1336.126 1207.974,1310.495 1233.667,1315.024 1254.164,1377.236 	"/>
	<polygon points="1341.358,1195.952 1338.023,1170.086 1363.858,1166.454 1402.575,1219.287 	"/>
	<polygon points="1429.482,1019.931 1418.317,996.362 1441.765,984.924 1494.915,1023.207 	"/>
	<polygon points="1458.9,825.294 1440.998,806.328 1459.764,788.204 1522.142,808.189 	"/>
	<polygon points="1426.732,631.091 1403.845,618.586 1416.092,595.55 1481.593,595.281 	"/>
	<polygon points="1336.126,456.335 1310.495,451.514 1315.024,425.821 1377.236,405.324 	"/>
	<polygon points="1195.952,318.13 1170.086,321.465 1166.454,295.63 1219.287,256.913 	"/>
	<polygon points="1019.931,230.006 996.362,241.171 984.924,217.723 1023.207,164.573 	"/>
	<polygon points="639.393,160.285 701.717,180.31 720.459,162.174 702.569,143.184 	"/>
	<polygon points="441.835,251.872 507.297,251.658 519.517,228.618 496.635,216.086 	"/>
	<polygon points="282.249,400.026 344.44,379.593 348.943,353.904 323.307,349.057 	"/>
	<polygon points="176.255,590.243 229.088,551.592 225.432,525.769 199.554,529.081 	"/>
	<polygon points="134.229,803.904 172.533,750.818 161.076,727.389 137.487,738.536 	"/>
	<polygon points="160.285,1020.095 180.31,957.771 162.174,939.029 143.184,956.919 	"/>
	<polygon points="251.872,1217.653 251.658,1152.191 228.618,1139.971 216.086,1162.853 	"/>
	<polygon points="400.026,1377.239 379.593,1315.048 353.904,1310.545 349.057,1336.181 	"/>
	<polygon points="590.243,1483.233 551.592,1430.4 525.769,1434.056 529.081,1459.934 	"/>
	<polygon points="803.904,1525.259 750.818,1486.955 727.389,1498.412 738.536,1522.001 	"/>
	<polygon points="1020.095,1499.203 957.771,1479.178 939.029,1497.314 956.919,1516.304 	"/>
	<polygon points="1217.653,1407.616 1152.191,1407.83 1139.971,1430.87 1162.853,1443.402 	"/>
	<polygon points="1377.239,1259.462 1315.048,1279.895 1310.545,1305.584 1336.181,1310.431 	"/>
	<polygon points="1483.233,1069.245 1430.4,1107.896 1434.056,1133.719 1459.934,1130.407 	"/>
	<polygon points="1525.259,855.584 1486.955,908.67 1498.412,932.099 1522.001,920.952 	"/>
	<polygon points="1499.203,639.393 1479.178,701.717 1497.314,720.459 1516.304,702.569 	"/>
	<polygon points="1407.616,441.835 1407.83,507.297 1430.87,519.517 1443.402,496.635 	"/>
	<polygon points="1259.462,282.249 1279.895,344.44 1305.584,348.943 1310.431,323.307 	"/>
	<polygon points="1069.245,176.255 1107.896,229.088 1133.719,225.432 1130.407,199.554 	"/>
	<polygon points="855.584,134.229 908.67,172.533 932.099,161.076 920.952,137.487 	"/>
	<polygon points="803.904,134.229 750.818,172.533 727.389,161.076 738.536,137.487 	"/>
	<polygon points="590.243,176.255 551.592,229.088 525.769,225.432 529.081,199.554 	"/>
	<polygon points="400.026,282.249 379.593,344.44 353.904,348.943 349.057,323.307 	"/>
	<polygon points="251.872,441.835 251.658,507.297 228.618,519.517 216.086,496.635 	"/>
	<polygon points="160.285,639.393 180.31,701.717 162.174,720.459 143.184,702.569 	"/>
	<polygon points="134.229,855.584 172.533,908.67 161.076,932.099 137.487,920.952 	"/>
	<polygon points="176.255,1069.245 229.088,1107.896 225.432,1133.719 199.554,1130.407 	"/>
	<polygon points="282.249,1259.462 344.44,1279.895 348.943,1305.584 323.307,1310.431 	"/>
	<polygon points="441.835,1407.616 507.297,1407.83 519.517,1430.87 496.635,1443.402 	"/>
	<polygon points="639.393,1499.203 701.717,1479.178 720.459,1497.314 702.569,1516.304 	"/>
	<polygon points="855.584,1525.259 908.67,1486.955 932.099,1498.412 920.952,1522.001 	"/>
	<polygon points="1069.245,1483.233 1107.896,1430.4 1133.719,1434.056 1130.407,1459.934 	"/>
	<polygon points="1259.462,1377.239 1279.895,1315.048 1305.584,1310.545 1310.431,1336.181 	"/>
	<polygon points="1407.616,1217.653 1407.83,1152.191 1430.87,1139.971 1443.402,1162.853 	"/>
	<polygon points="1499.203,1020.095 1479.178,957.771 1497.314,939.029 1516.304,956.919 	"/>
	<polygon points="1525.259,803.904 1486.955,750.818 1498.412,727.389 1522.001,738.536 	"/>
	<polygon points="1483.233,590.243 1430.4,551.592 1434.056,525.769 1459.934,529.081 	"/>
	<polygon points="1377.239,400.026 1315.048,379.593 1310.545,353.904 1336.181,349.057 	"/>
	<polygon points="1217.653,251.872 1152.191,251.658 1139.971,228.618 1162.853,216.086 	"/>
	<polygon points="1020.095,160.285 957.771,180.31 939.029,162.174 956.919,143.184 	"/>
	<path d="M710.578,77.361c-32.572,5.159-60.516,9.585-78.519,12.436c-11.74-14.293-30.07-22.585-49.528-20.898
		c-16.733,10.073-26.689,27.555-27.786,46.019c-16.241,8.275-41.45,21.12-70.833,36.091c-29.383,14.972-54.592,27.816-70.833,36.091
		c-15.582-9.966-35.578-12.187-53.562-4.57c-12.802,14.751-16.868,34.453-12.205,52.353c-12.889,12.889-32.895,32.895-56.214,56.214
		c-23.319,23.319-43.324,43.324-56.214,56.214c-17.899-4.663-37.602-0.597-52.353,12.205c-7.617,17.985-5.396,37.98,4.57,53.562
		c-8.275,16.242-21.12,41.45-36.091,70.833c-14.972,29.383-27.816,54.592-36.091,70.833c-18.464,1.096-35.946,11.052-46.019,27.786
		c-1.687,19.458,6.605,37.788,20.898,49.528c-2.852,18.004-7.277,45.948-12.436,78.519c-5.159,32.572-9.585,60.516-12.436,78.519
		c-17.222,6.749-30.772,21.619-35.18,40.646c4.409,19.027,17.959,33.898,35.18,40.646c2.852,18.004,7.277,45.948,12.436,78.519
		c5.159,32.572,9.585,60.516,12.436,78.519c-14.293,11.74-22.585,30.07-20.898,49.528c10.073,16.733,27.555,26.689,46.019,27.786
		c8.275,16.242,21.12,41.45,36.091,70.833s27.816,54.592,36.091,70.833c-9.966,15.583-12.187,35.578-4.57,53.562
		c14.751,12.802,34.453,16.868,52.353,12.205c12.889,12.889,32.895,32.895,56.214,56.214c23.319,23.319,43.324,43.324,56.214,56.214
		c-4.663,17.899-0.597,37.602,12.205,52.353c17.985,7.617,37.98,5.396,53.562-4.57c16.242,8.276,41.45,21.12,70.833,36.091
		c29.383,14.972,54.592,27.816,70.833,36.091c1.096,18.464,11.052,35.946,27.786,46.019c19.458,1.687,37.788-6.605,49.528-20.898
		c18.004,2.852,45.948,7.277,78.519,12.436c32.572,5.159,60.516,9.585,78.519,12.436c6.749,17.222,21.619,30.772,40.646,35.18
		c19.027-4.409,33.898-17.958,40.646-35.18c18.004-2.851,45.948-7.277,78.519-12.436c32.572-5.159,60.516-9.585,78.519-12.436
		c11.74,14.293,30.07,22.585,49.528,20.898c16.733-10.073,26.689-27.555,27.786-46.019c16.242-8.276,41.45-21.12,70.833-36.091
		s54.592-27.816,70.833-36.091c15.583,9.966,35.578,12.187,53.562,4.57c12.802-14.751,16.868-34.453,12.205-52.353
		c12.889-12.889,32.895-32.895,56.214-56.214c23.319-23.319,43.324-43.324,56.214-56.214c17.899,4.663,37.602,0.597,52.353-12.205
		c7.617-17.984,5.396-37.98-4.57-53.562c8.276-16.241,21.12-41.45,36.091-70.833s27.816-54.592,36.091-70.833
		c18.464-1.096,35.946-11.052,46.019-27.786c1.687-19.458-6.605-37.788-20.898-49.528c2.852-18.004,7.277-45.948,12.436-78.519
		c5.159-32.572,9.585-60.516,12.436-78.519c17.222-6.749,30.772-21.619,35.18-40.646c-4.409-19.027-17.958-33.898-35.18-40.646
		c-2.851-18.004-7.277-45.948-12.436-78.519c-5.159-32.572-9.585-60.516-12.436-78.519c14.293-11.74,22.585-30.07,20.898-49.528
		c-10.073-16.733-27.555-26.689-46.019-27.786c-8.276-16.241-21.12-41.45-36.091-70.833c-14.972-29.383-27.816-54.592-36.091-70.833
		c9.966-15.582,12.187-35.578,4.57-53.562c-14.751-12.802-34.453-16.868-52.353-12.205c-12.889-12.889-32.895-32.895-56.214-56.214
		c-23.319-23.319-43.324-43.324-56.214-56.214c4.663-17.899,0.597-37.602-12.205-52.353c-17.984-7.617-37.98-5.396-53.562,4.57
		c-16.241-8.275-41.45-21.12-70.833-36.091s-54.592-27.816-70.833-36.091c-1.096-18.464-11.052-35.946-27.786-46.019
		c-19.458-1.687-37.788,6.605-49.528,20.898c-18.004-2.852-45.948-7.277-78.519-12.436c-32.572-5.159-60.516-9.585-78.519-12.436
		c-6.749-17.222-21.619-30.772-40.646-35.18c-19.027,4.409-33.898,17.959-40.646,35.18C771.094,67.776,743.15,72.202,710.578,77.361
		z M617.25,175.756c13.8-8.332,23.57-22.176,26.758-38.024l148.538-23.526c7.929,14.088,21.499,24.235,37.198,27.895
		c15.699-3.659,29.269-13.807,37.198-27.895l148.538,23.526c3.188,15.848,12.957,29.692,26.758,38.024
		c16.062,1.371,32.103-4.087,43.997-15.034l133.998,68.275c-1.865,16.058,3.148,32.243,13.698,44.432
		c14.852,6.267,31.794,6.034,46.49-0.703l106.341,106.341c-6.736,14.695-6.97,31.638-0.703,46.49
		c12.188,10.55,28.374,15.563,44.432,13.698l68.275,133.998c-10.948,11.895-16.406,27.936-15.035,43.997
		c8.332,13.8,22.176,23.57,38.024,26.758l23.526,148.538c-14.088,7.929-24.235,21.499-27.895,37.198
		c3.659,15.699,13.807,29.269,27.895,37.198l-23.526,148.538c-15.849,3.188-29.692,12.957-38.024,26.758
		c-1.371,16.062,4.087,32.103,15.035,43.997l-68.275,133.998c-16.058-1.865-32.243,3.148-44.432,13.698
		c-6.267,14.852-6.034,31.794,0.703,46.49l-106.341,106.341c-14.696-6.736-31.638-6.97-46.49-0.703
		c-10.55,12.188-15.563,28.374-13.698,44.432l-133.998,68.275c-11.895-10.948-27.936-16.406-43.997-15.035
		c-13.8,8.332-23.57,22.176-26.758,38.024l-148.538,23.526c-7.929-14.088-21.499-24.235-37.198-27.895
		c-15.699,3.659-29.269,13.807-37.198,27.895l-148.538-23.526c-3.188-15.849-12.957-29.692-26.758-38.024
		c-16.062-1.371-32.103,4.087-43.997,15.035l-133.998-68.275c1.866-16.058-3.148-32.243-13.698-44.432
		c-14.852-6.267-31.794-6.034-46.49,0.703l-106.341-106.341c6.736-14.696,6.97-31.638,0.703-46.49
		c-12.188-10.55-28.374-15.563-44.432-13.698l-68.275-133.998c10.948-11.895,16.405-27.936,15.034-43.997
		c-8.332-13.8-22.176-23.57-38.024-26.758l-23.526-148.538c14.088-7.929,24.235-21.499,27.895-37.198
		c-3.659-15.699-13.807-29.269-27.895-37.198l23.526-148.538c15.848-3.188,29.692-12.957,38.024-26.758
		c1.371-16.062-4.087-32.103-15.034-43.997l68.275-133.998c16.058,1.866,32.243-3.148,44.432-13.698
		c6.267-14.852,6.034-31.794-0.703-46.49l106.341-106.341c14.695,6.736,31.638,6.97,46.49,0.703
		c10.55-12.188,15.563-28.374,13.698-44.432l133.998-68.275C585.148,171.67,601.189,177.127,617.25,175.756z M644.646,118.946
		c-0.07-0.534-0.145-1.069-0.23-1.604c-0.321-2.025-0.745-4.008-1.263-5.945l142.068-22.501c0.106,2.003,0.315,4.02,0.636,6.045
		c0.085,0.535,0.178,1.067,0.277,1.596L644.646,118.946z M434.057,210.933c-0.231-0.486-0.468-0.971-0.714-1.454
		c-0.931-1.827-1.947-3.581-3.039-5.264l128.161-65.301c0.72,1.872,1.542,3.726,2.473,5.552c0.246,0.483,0.499,0.96,0.757,1.433
		L434.057,210.933z M262.2,363.494c-0.37-0.391-0.746-0.779-1.129-1.162c-1.45-1.45-2.958-2.804-4.516-4.067l101.709-101.709
		c1.263,1.558,2.618,3.067,4.067,4.516c0.383,0.383,0.771,0.759,1.162,1.129L262.2,363.494z M145.898,561.695
		c-0.473-0.258-0.95-0.511-1.433-0.757c-1.827-0.931-3.68-1.753-5.552-2.473l65.301-128.161c1.683,1.092,3.437,2.108,5.264,3.039
		c0.483,0.246,0.968,0.483,1.454,0.714L145.898,561.695z M96.536,786.134c-0.529-0.099-1.061-0.192-1.596-0.277
		c-2.025-0.321-4.042-0.53-6.045-0.636l22.501-142.068c1.938,0.518,3.92,0.942,5.945,1.263c0.535,0.085,1.07,0.16,1.604,0.23
		L96.536,786.134z M118.946,1014.842c-0.534,0.07-1.069,0.145-1.604,0.23c-2.025,0.321-4.008,0.745-5.945,1.263L88.895,874.267
		c2.003-0.106,4.02-0.315,6.045-0.636c0.535-0.085,1.067-0.178,1.596-0.277L118.946,1014.842z M210.933,1225.431
		c-0.486,0.231-0.971,0.468-1.454,0.714c-1.827,0.931-3.581,1.947-5.264,3.039l-65.301-128.161c1.872-0.72,3.726-1.542,5.552-2.473
		c0.483-0.246,0.96-0.499,1.433-0.757L210.933,1225.431z M363.494,1397.288c-0.391,0.37-0.779,0.745-1.162,1.129
		c-1.45,1.45-2.804,2.958-4.067,4.516l-101.709-101.709c1.558-1.263,3.067-2.618,4.516-4.067c0.383-0.383,0.759-0.771,1.129-1.162
		L363.494,1397.288z M561.695,1513.59c-0.258,0.473-0.511,0.95-0.757,1.433c-0.931,1.827-1.753,3.68-2.473,5.552l-128.161-65.301
		c1.092-1.683,2.108-3.437,3.039-5.264c0.246-0.483,0.483-0.968,0.714-1.454L561.695,1513.59z M786.134,1562.952
		c-0.099,0.529-0.192,1.061-0.277,1.596c-0.321,2.025-0.53,4.042-0.636,6.045l-142.068-22.501c0.518-1.938,0.942-3.92,1.263-5.945
		c0.085-0.535,0.16-1.07,0.23-1.604L786.134,1562.952z M1014.842,1540.542c0.07,0.534,0.145,1.069,0.23,1.604
		c0.321,2.025,0.745,4.008,1.263,5.945l-142.068,22.501c-0.106-2.003-0.315-4.02-0.636-6.045c-0.085-0.535-0.178-1.067-0.277-1.596
		L1014.842,1540.542z M1225.431,1448.555c0.231,0.486,0.468,0.971,0.714,1.454c0.931,1.827,1.947,3.581,3.039,5.264l-128.161,65.301
		c-0.72-1.872-1.542-3.726-2.473-5.552c-0.246-0.483-0.499-0.96-0.757-1.433L1225.431,1448.555z M1397.288,1295.994
		c0.37,0.391,0.745,0.779,1.129,1.162c1.45,1.45,2.958,2.804,4.516,4.067l-101.709,101.709c-1.263-1.558-2.618-3.067-4.067-4.516
		c-0.383-0.383-0.771-0.759-1.162-1.129L1397.288,1295.994z M1513.59,1097.793c0.473,0.258,0.95,0.511,1.433,0.757
		c1.827,0.931,3.68,1.753,5.552,2.473l-65.301,128.161c-1.683-1.092-3.437-2.108-5.264-3.039c-0.483-0.246-0.968-0.483-1.454-0.714
		L1513.59,1097.793z M1562.952,873.354c0.529,0.099,1.061,0.192,1.596,0.277c2.025,0.321,4.042,0.53,6.045,0.636l-22.501,142.068
		c-1.938-0.518-3.92-0.942-5.945-1.263c-0.535-0.085-1.07-0.16-1.604-0.23L1562.952,873.354z M1540.542,644.646
		c0.534-0.07,1.069-0.145,1.604-0.23c2.025-0.321,4.008-0.745,5.945-1.263l22.501,142.068c-2.003,0.106-4.02,0.315-6.045,0.636
		c-0.535,0.085-1.067,0.178-1.596,0.277L1540.542,644.646z M1448.555,434.057c0.486-0.231,0.971-0.468,1.454-0.714
		c1.827-0.931,3.581-1.947,5.264-3.039l65.301,128.161c-1.872,0.72-3.726,1.542-5.552,2.473c-0.483,0.246-0.96,0.499-1.433,0.757
		L1448.555,434.057z M1295.994,262.2c0.391-0.37,0.779-0.746,1.162-1.129c1.45-1.45,2.804-2.958,4.067-4.516l101.709,101.709
		c-1.558,1.263-3.067,2.618-4.516,4.067c-0.383,0.383-0.759,0.771-1.129,1.162L1295.994,262.2z M1097.793,145.898
		c0.258-0.473,0.511-0.95,0.757-1.433c0.931-1.827,1.753-3.68,2.473-5.552l128.161,65.301c-1.092,1.683-2.108,3.437-3.039,5.264
		c-0.246,0.483-0.483,0.968-0.714,1.454L1097.793,145.898z M873.354,96.536c0.099-0.529,0.192-1.061,0.277-1.596
		c0.321-2.025,0.53-4.042,0.636-6.045l142.068,22.501c-0.518,1.938-0.942,3.92-1.263,5.945c-0.085,0.535-0.16,1.07-0.23,1.604
		L873.354,96.536z"/>
</g>
</svg>
