<svg version="1.2" xmlns="http://www.w3.org/2000/svg" viewBox="0 0 800 800" width="800" height="800">
	<title>Nouveau projet</title>
	<style>
		.s0 { fill: #ffffff } 
	</style>
	<path id="G" class="s0" aria-label="G"  d="m520.5 438h33.7c-10-52-53.6-87.8-110.4-87.8-69 0-117.7 53.1-117.7 138.3 0 85.1 48.3 138.2 119.8 138.2 64.1 0 109.8-42.7 109.8-109.3v-28.9h-102.4v28.9h70.9c-0.9 48.3-32.7 78.8-78.3 78.8-49.9 0-88.3-37.8-88.3-107.7 0-69.9 38.4-107.8 86.2-107.8 38.9 0 65.3 22 76.7 57.3z"/>
	<path id="H" class="s0" aria-label="H"  d="m244.6 443h32.6v-120.4h143.5v120.4h32.5v-269.1h-32.5v119.8h-143.5v-119.8h-32.6z"/>
</svg>