<?xml version="1.0" standalone="no"?>
<!DOCTYPE svg PUBLIC "-//W3C//DTD SVG 20010904//EN"
 "http://www.w3.org/TR/2001/REC-SVG-20010904/DTD/svg10.dtd">
<svg version="1.0" xmlns="http://www.w3.org/2000/svg"
 width="1280.000000pt" height="1280.000000pt" viewBox="0 0 1280.000000 1280.000000"
 preserveAspectRatio="xMidYMid meet">
<metadata>
Created by potrace 1.15, written by Peter Selinger 2001-2017
</metadata>
<g transform="translate(0.000000,1280.000000) scale(0.100000,-0.100000)"
fill="#ffffff" stroke="none">
<path d="M6065 12794 c-2175 -118 -4138 -1328 -5225 -3223 -118 -205 -296
-574 -384 -796 -231 -582 -369 -1165 -433 -1820 -24 -255 -24 -879 0 -1125 86
-861 305 -1613 681 -2345 859 -1672 2389 -2874 4210 -3310 909 -217 1897 -231
2801 -39 331 70 697 179 1000 297 1819 709 3225 2214 3795 4065 287 929 362
1910 219 2862 -307 2038 -1609 3834 -3449 4755 -735 368 -1483 582 -2315 660
-162 16 -738 27 -900 19z m920 -598 c974 -106 1852 -421 2645 -949 1322 -881
2241 -2292 2510 -3852 63 -367 84 -669 77 -1100 -7 -406 -28 -618 -98 -990
-165 -879 -536 -1711 -1084 -2430 -166 -218 -304 -375 -524 -595 -475 -475
-968 -825 -1576 -1121 -638 -310 -1253 -482 -2005 -561 -169 -18 -880 -18
-1050 0 -619 65 -1155 195 -1675 407 -119 49 -160 67 -340 150 -33 15 -123 61
-200 102 -1648 879 -2781 2502 -3034 4343 -41 299 -46 378 -46 785 0 420 7
533 51 838 306 2137 1749 3911 3787 4656 475 174 985 283 1537 330 168 15 850
6 1025 -13z"/>
<path d="M8223 10414 c-41 -21 -73 -71 -73 -116 0 -19 21 -90 46 -159 262
-705 492 -1542 603 -2199 66 -387 91 -657 91 -995 0 -484 -69 -816 -223 -1069
-153 -253 -313 -330 -577 -280 -241 45 -578 219 -1014 523 l-163 114 18 59
c24 76 25 213 3 289 -57 194 -218 342 -412 380 -130 25 -291 -8 -397 -81 -27
-18 -50 -28 -58 -24 -6 5 -84 59 -173 120 -216 152 -475 314 -669 418 -130 70
-335 208 -1105 744 l-944 658 -1 84 c0 72 -4 93 -28 142 -66 135 -224 201
-368 153 -72 -24 -159 -110 -182 -179 -36 -106 -15 -221 55 -301 63 -71 126
-99 223 -100 67 0 89 4 134 27 53 26 55 26 80 9 241 -166 1371 -953 1371 -954
0 -1 -82 -2 -182 -2 -210 -1 -287 -16 -436 -86 -670 -312 -779 -1254 -331
-2832 173 -609 450 -1357 758 -2045 124 -275 137 -300 174 -322 87 -53 207 13
207 115 0 23 -21 82 -59 164 -447 964 -823 2050 -976 2813 -69 346 -95 583
-95 863 0 307 33 491 120 670 76 156 167 252 305 319 95 47 171 66 291 73 333
19 776 -167 1392 -583 263 -178 295 -203 287 -222 -34 -89 -31 -240 7 -343 46
-125 147 -239 265 -298 66 -33 150 -51 238 -51 95 0 165 18 256 67 l66 35 171
-118 c246 -170 445 -294 613 -379 152 -77 137 -67 1621 -1099 l487 -339 -6
-62 c-8 -91 15 -160 77 -228 64 -70 128 -99 221 -99 314 0 414 425 133 563
-89 44 -170 46 -260 5 l-62 -28 -758 527 c-418 290 -765 533 -772 540 -11 10
5 13 80 17 332 19 608 289 757 744 85 260 116 497 116 894 -1 364 -24 622 -96
1045 -109 650 -350 1527 -613 2234 -54 147 -64 163 -109 185 -44 20 -83 20
-124 0z m-1698 -3570 c123 -31 216 -108 273 -222 36 -73 37 -80 37 -181 0 -98
-2 -111 -32 -173 -112 -237 -394 -319 -611 -178 -222 143 -255 457 -67 645
108 107 255 147 400 109z"/>
</g>
</svg>
